<?xml version="1.0" encoding="utf-8"?>
<!-- Generator: Adobe Illustrator 19.0.0, SVG Export Plug-In . SVG Version: 6.00 Build 0)  -->
<svg version="1.1" id="Layer_1" xmlns="http://www.w3.org/2000/svg" xmlns:xlink="http://www.w3.org/1999/xlink" x="0px" y="0px"
	 viewBox="24 34.5 193.7 32.5" style="enable-background:new 24 34.5 193.7 32.5;" xml:space="preserve">
<style type="text/css">
	.st0{fill:#C7E7F1;}
	.st1{fill:#EDF7FC;}
	.st2{fill:#EEF8FD;}
	.st3{fill:#8E2B27;}
	.st4{fill:#37C0D1;}
	.st5{fill:#EE3829;}
</style>
<polygon id="XMLID_1_" class="st0" points="28.6,62 28.9,62.3 51.7,38.9 51.7,38.9 "/>
<g id="XMLID_128_">
	<path id="XMLID_129_" class="st1" d="M73.7,57.9V44.6h2c0.4,0,0.7,0.1,0.8,0.7l0.3,1.1c0.3-0.3,0.5-0.5,0.8-0.7
		c0.3-0.3,0.5-0.4,0.8-0.5c0.3-0.1,0.7-0.3,0.9-0.4c0.4-0.4,0.8-0.4,1.2-0.4c0.8,0,1.6,0.3,2.2,0.7c0.5,0.4,0.9,1.1,1.2,1.9
		c0.3-0.4,0.5-0.8,0.8-1.2c0.3-0.3,0.7-0.5,1.1-0.8c0.4-0.3,0.8-0.4,1.2-0.4s0.8-0.1,1.3-0.1c0.8,0,1.5,0.1,2,0.4
		c0.5,0.3,1.1,0.5,1.5,1.1c0.4,0.4,0.7,0.9,0.9,1.6s0.3,1.3,0.3,2.2v8.5h-3.2v-8.5c0-0.9-0.1-1.5-0.5-2s-0.9-0.7-1.7-0.7
		c-0.4,0-0.7,0-0.9,0.1c-0.3,0.1-0.5,0.3-0.8,0.5c-0.3,0.3-0.4,0.5-0.5,0.8c-0.1,0.3-0.1,0.7-0.1,1.1v8.5h-3.2v-8.6
		c0-0.9-0.1-1.6-0.5-2c-0.4-0.4-0.9-0.7-1.6-0.7c-0.5,0-0.9,0.1-1.3,0.4c-0.4,0.3-0.8,0.5-1.2,0.9v9.8L73.7,57.9L73.7,57.9z"/>
	<path id="XMLID_131_" class="st1" d="M106.3,57.9h-1.5c-0.3,0-0.5,0-0.7-0.1c-0.1-0.1-0.3-0.3-0.4-0.5l-0.3-0.9
		c-0.4,0.3-0.7,0.5-1.1,0.8c-0.3,0.3-0.7,0.4-1.1,0.5c-0.4,0.1-0.8,0.3-1.2,0.4c-0.4,0.1-0.8,0.1-1.3,0.1c-0.5,0-1.1-0.1-1.6-0.3
		c-0.5-0.1-0.9-0.4-1.2-0.7c-0.4-0.3-0.7-0.7-0.8-1.2c-0.1-0.4-0.3-1.1-0.3-1.6s0.1-1.1,0.4-1.5c0.3-0.5,0.7-0.9,1.3-1.3
		s1.5-0.8,2.4-1.1c1.1-0.3,2.4-0.4,3.8-0.4v-0.8c0-0.9-0.1-1.6-0.5-2c-0.4-0.4-0.9-0.7-1.7-0.7c-0.5,0-0.9,0-1.3,0.1
		s-0.7,0.3-0.9,0.4s-0.5,0.3-0.7,0.4c0.3,0.4,0.1,0.4-0.1,0.4s-0.4,0-0.5-0.1c-0.1-0.1-0.3-0.3-0.4-0.4l-0.8-1.1
		c1.6-1.5,3.4-2.2,5.7-2.2c0.8,0,1.5,0.1,2.2,0.4c0.7,0.3,1.2,0.7,1.6,1.1c0.4,0.4,0.8,1.1,0.9,1.7c0.1,0.7,0.4,1.3,0.4,2.2v8.3
		H106.3z M100.1,55.9c0.4,0,0.7,0,0.9-0.1c0.3,0,0.5-0.1,0.8-0.3c0.3-0.1,0.5-0.3,0.7-0.4c0.1-0.1,0.5-0.4,0.7-0.7v-2.3
		c-0.9,0-1.7,0-2.4,0.1c-0.7,0.1-1.2,0.3-1.6,0.4c-0.4,0.1-0.7,0.4-0.8,0.7c-0.1,0.3-0.3,0.5-0.3,0.8c0,0.5,0.1,0.9,0.5,1.2
		C99,55.8,99.5,55.9,100.1,55.9z"/>
	<path id="XMLID_134_" class="st1" d="M109.5,62.4V44.6h2c0.3,0,0.4,0,0.5,0.1c0.1,0.1,0.3,0.3,0.3,0.4l0.3,1.2
		c0.5-0.7,1.2-1.2,1.9-1.5c0.7-0.4,1.6-0.5,2.4-0.5c0.8,0,1.5,0.1,2,0.5c0.7,0.3,1.2,0.8,1.6,1.3c0.4,0.5,0.8,1.3,1.1,2.2
		c0.3,0.9,0.4,1.9,0.4,2.8c0,1.1-0.1,2-0.4,2.7c-0.3,0.9-0.7,1.6-1.2,2.3c-0.5,0.7-1.1,1.2-1.9,1.5c-0.7,0.4-1.6,0.5-2.4,0.5
		s-1.5-0.1-2-0.4c-0.5-0.3-1.1-0.5-1.5-0.9v5.5L109.5,62.4L109.5,62.4z M115.7,46.8c-0.7,0-1.3,0.1-1.7,0.4
		c-0.5,0.3-0.9,0.7-1.3,1.2v6.1c0.4,0.4,0.8,0.8,1.2,0.9c0.4,0.1,0.9,0.3,1.5,0.3c0.5,0,0.9-0.1,1.3-0.3c0.4-0.1,0.8-0.5,1.1-0.8
		c0.3-0.4,0.5-0.8,0.7-1.5c0.1-0.7,0.3-1.3,0.3-2c0-0.8,0-1.5-0.1-2c-0.1-0.5-0.3-1.1-0.5-1.3c-0.3-0.4-0.5-0.7-0.9-0.8
		C116.5,46.9,116.1,46.8,115.7,46.8z"/>
	<path id="XMLID_137_" class="st1" d="M124.3,62.4V44.6h2c0.3,0,0.4,0,0.5,0.1c0.1,0.1,0.3,0.3,0.3,0.4l0.3,1.2
		c0.5-0.7,1.2-1.2,1.9-1.5c0.7-0.4,1.6-0.5,2.4-0.5c0.8,0,1.5,0.1,2,0.5c0.5,0.4,1.2,0.8,1.6,1.3c0.4,0.5,0.8,1.3,1.1,2.2
		c0.3,0.9,0.4,1.9,0.4,2.8c0,1.1-0.1,2-0.4,2.7c-0.3,0.9-0.7,1.6-1.2,2.3s-1.1,1.2-1.9,1.5c-0.7,0.4-1.6,0.5-2.4,0.5
		c-0.8,0-1.5-0.1-2-0.4c-0.5-0.3-1.1-0.5-1.5-0.9v5.5L124.3,62.4L124.3,62.4z M130.5,46.8c-0.7,0-1.3,0.1-1.7,0.4
		c-0.4,0.3-0.9,0.7-1.3,1.2v6.1c0.4,0.4,0.8,0.8,1.2,0.9c0.4,0.1,0.9,0.3,1.5,0.3s0.9-0.1,1.3-0.3c0.4-0.1,0.8-0.5,1.1-0.8
		c0.3-0.4,0.5-0.8,0.7-1.5s0.3-1.3,0.3-2c0-0.8,0-1.5-0.1-2s-0.3-1.1-0.5-1.3c-0.3-0.3-0.5-0.7-0.9-0.8
		C131.3,46.9,130.9,46.8,130.5,46.8z"/>
	<path id="XMLID_140_" class="st1" d="M143,40.6c0,0.3,0,0.5-0.1,0.8c-0.1,0.3-0.3,0.5-0.4,0.7c-0.1,0.1-0.4,0.4-0.7,0.4
		c-0.3,0.1-0.5,0.1-0.8,0.1c-0.3,0-0.5,0-0.8-0.1c-0.3-0.1-0.5-0.3-0.7-0.4c-0.1-0.1-0.4-0.4-0.4-0.7c-0.3-0.3-0.3-0.5-0.3-0.8
		s0-0.5,0.1-0.8s0.3-0.5,0.4-0.7c0.1-0.1,0.4-0.4,0.7-0.4c0.3-0.1,0.5-0.1,0.8-0.1c0.3,0,0.5,0,0.8,0.1c0.3,0.1,0.5,0.3,0.7,0.4
		s0.4,0.4,0.4,0.7C143,40.2,143,40.3,143,40.6z M142.6,44.6v13.5h-3.2V44.6H142.6z"/>
	<path id="XMLID_143_" class="st1" d="M146.1,57.9V44.6h2c0.4,0,0.7,0.1,0.8,0.7l0.3,1.1c0.3-0.3,0.5-0.5,0.9-0.8
		c0.3-0.3,0.7-0.4,0.9-0.7c0.4-0.1,0.7-0.3,1.1-0.4c0.4-0.1,0.8-0.1,1.3-0.1c0.8,0,1.5,0.1,2,0.4c0.5,0.3,1.1,0.7,1.5,1.1
		c0.4,0.4,0.7,1.1,0.9,1.6c0.1,0.7,0.3,1.3,0.3,2.2v8.5H155v-8.5c0-0.8-0.1-1.5-0.5-2c-0.4-0.4-0.9-0.7-1.7-0.7
		c-0.5,0-1.1,0.1-1.6,0.4c-0.5,0.3-0.9,0.7-1.5,1.1v9.7h-3.5V57.9z"/>
	<path id="XMLID_145_" class="st1" d="M165.8,44.4c0.5,0,1.2,0,1.6,0.1c0.5,0.1,0.9,0.3,1.5,0.5h3.9v1.2c0,0.3,0,0.4-0.1,0.5
		c-0.1,0.1-0.3,0.1-0.5,0.3l-1.2,0.3c0.1,0.3,0.1,0.5,0.3,0.7c0,0.3,0.1,0.5,0.1,0.8c0,0.7-0.1,1.3-0.4,1.9
		c-0.3,0.5-0.7,1.1-1.1,1.3c-0.5,0.4-1.1,0.7-1.7,0.9s-1.3,0.3-2.2,0.3c-0.5,0-1.1,0-1.5-0.1c-0.4,0.3-0.7,0.5-0.7,0.9
		c0,0.3,0.1,0.5,0.4,0.7s0.5,0.3,1.1,0.3c0.4,0,0.9,0.1,1.5,0.1c0.5,0,1.1,0,1.6,0.1c0.5,0,1.1,0.1,1.6,0.3c0.5,0.1,0.9,0.3,1.5,0.5
		c0.4,0.3,0.8,0.5,1.1,0.9c0.3,0.4,0.4,0.9,0.4,1.6s-0.1,1.2-0.4,1.7c-0.3,0.5-0.7,1.1-1.3,1.5c-0.5,0.4-1.2,0.8-2.2,1.1
		c-0.9,0.3-1.7,0.4-2.7,0.4c-0.9,0-2-0.1-2.6-0.3c-0.8-0.1-1.3-0.4-1.9-0.8c-0.5-0.3-0.9-0.7-1.1-1.2s-0.4-0.9-0.4-1.3
		c0-0.7,0.1-1.2,0.5-1.6c0.4-0.4,0.9-0.8,1.6-1.1c-0.4-0.1-0.7-0.4-0.8-0.8c-0.3-0.3-0.3-0.7-0.3-1.2c0-0.3,0-0.4,0.1-0.7
		c0.1-0.3,0.1-0.4,0.3-0.7c0.1-0.3,0.3-0.4,0.5-0.7c0.3-0.1,0.5-0.4,0.8-0.5c-0.7-0.4-1.2-0.9-1.6-1.5c-0.4-0.7-0.5-1.3-0.5-2.2
		c0-0.7,0.1-1.3,0.4-1.9c0.3-0.5,0.7-1.1,1.1-1.3c0.4-0.3,1.1-0.7,1.7-0.9C164.2,44.5,165,44.4,165.8,44.4z M169.3,58.6
		c0-0.3-0.1-0.5-0.3-0.7c-0.1-0.1-0.4-0.3-0.7-0.4c-0.3-0.1-0.5-0.1-0.9-0.3c-0.4,0-0.8-0.1-1.2-0.1s-0.8,0-1.3,0
		c-0.5,0-0.8,0-1.3-0.1c-0.4,0.3-0.7,0.4-0.9,0.7c-0.3,0.3-0.4,0.7-0.4,0.9c0,0.3,0,0.4,0.1,0.7s0.3,0.4,0.5,0.5
		c0.3,0.1,0.7,0.3,1.1,0.4c0.4,0.1,0.9,0.1,1.6,0.1s1.2,0,1.6-0.1c0.4-0.1,0.8-0.3,1.1-0.4c0.3-0.1,0.5-0.4,0.7-0.5
		C169.1,59.2,169.3,58.9,169.3,58.6z M165.8,50.9c0.4,0,0.8,0,1.1-0.1c0.3-0.1,0.5-0.3,0.8-0.4c0.1-0.1,0.4-0.4,0.4-0.7
		c0.1-0.3,0.1-0.5,0.1-0.9c0-0.7-0.3-1.2-0.7-1.6c-0.4-0.4-1.1-0.5-1.9-0.5c-0.8,0-1.5,0.1-1.9,0.5c-0.4,0.4-0.7,0.9-0.7,1.6
		c0,0.3,0,0.7,0.1,0.9c0.1,0.3,0.3,0.5,0.4,0.7c0.3,0.3,0.4,0.4,0.8,0.5C165,50.8,165.4,50.9,165.8,50.9z"/>
	<path id="XMLID_149_" class="st1" d="M174.1,48.8h6.9v2.7h-6.9V48.8z"/>
	<path id="XMLID_151_" class="st1" d="M187.6,38.6v19.5h-3.2V38.6H187.6z"/>
	<path id="XMLID_153_" class="st1" d="M201.7,57.9h-1.5c-0.3,0-0.5,0-0.7-0.1s-0.3-0.3-0.4-0.5l-0.3-0.9c-0.4,0.3-0.7,0.5-1.1,0.8
		c-0.3,0.3-0.7,0.4-1.1,0.5c-0.4,0.1-0.7,0.3-1.1,0.4c-0.4,0.1-0.8,0.1-1.3,0.1s-1.1-0.1-1.6-0.3c-0.5-0.1-0.9-0.4-1.2-0.7
		c-0.4-0.3-0.7-0.7-0.8-1.2c-0.1-0.4-0.3-1.1-0.3-1.6s0.1-1.1,0.4-1.5c0.3-0.5,0.7-0.9,1.3-1.3s1.5-0.8,2.4-1.1
		c1.1-0.3,2.4-0.4,3.8-0.4v-0.8c0-0.9-0.1-1.6-0.5-2c-0.4-0.4-0.9-0.7-1.7-0.7c-0.5,0-0.9,0-1.3,0.1c-0.4,0.1-0.7,0.3-0.9,0.4
		c-0.3,0.1-0.5,0.3-0.7,0.4c-0.3,0.1-0.4,0.1-0.7,0.1c-0.3,0-0.4,0-0.5-0.1s-0.3-0.3-0.4-0.4l-0.7-1.1c1.6-1.5,3.4-2.2,5.7-2.2
		c0.8,0,1.5,0.1,2.2,0.4c0.7,0.3,1.2,0.7,1.6,1.1c0.4,0.4,0.8,1.1,0.9,1.7c0.3,0.7,0.4,1.3,0.4,2.2v8.3h0.1V57.9z M195.4,55.9
		c0.4,0,0.7,0,0.9-0.1c0.3,0,0.5-0.1,0.8-0.3c0.3-0.1,0.5-0.3,0.7-0.4c0.1-0.1,0.5-0.4,0.7-0.7v-2.3c-0.9,0-1.7,0-2.4,0.1
		c-0.7,0.1-1.2,0.3-1.6,0.4c-0.4,0.1-0.7,0.4-0.8,0.7c-0.1,0.3-0.3,0.5-0.3,0.8c0,0.5,0.1,0.9,0.5,1.2
		C194.4,55.8,194.8,55.9,195.4,55.9z"/>
	<path id="XMLID_156_" class="st1" d="M204.9,57.9V38.6h3.2v7.7c0.5-0.5,1.2-1.1,1.9-1.3c0.7-0.4,1.5-0.5,2.4-0.5
		c0.8,0,1.5,0.1,2,0.4c0.7,0.3,1.2,0.8,1.6,1.3c0.4,0.5,0.8,1.3,1.1,2.2c0.3,0.8,0.4,1.9,0.4,2.8c0,1.1-0.1,2-0.4,2.7
		c-0.3,0.9-0.7,1.6-1.2,2.3c-0.5,0.7-1.1,1.2-1.9,1.5c-0.7,0.4-1.6,0.5-2.4,0.5c-0.4,0-0.8,0-1.2-0.1c-0.4-0.1-0.7-0.3-0.9-0.4
		c-0.3-0.1-0.5-0.4-0.8-0.5c-0.3-0.1-0.5-0.4-0.7-0.7l-0.1,0.9c0,0.3-0.1,0.4-0.3,0.5c-0.1,0.1-0.3,0.1-0.5,0.1
		C207.2,57.9,204.9,57.9,204.9,57.9z M211.3,46.8c-0.7,0-1.3,0.1-1.7,0.4c-0.4,0.3-0.9,0.7-1.3,1.2v6.1c0.4,0.4,0.8,0.8,1.2,0.9
		c0.4,0.1,0.9,0.3,1.5,0.3c0.5,0,0.9-0.1,1.3-0.3c0.4-0.1,0.8-0.5,1.1-0.8c0.3-0.4,0.5-0.8,0.7-1.5s0.3-1.3,0.3-2c0-0.8,0-1.5-0.1-2
		s-0.3-1.1-0.5-1.3c-0.3-0.4-0.5-0.7-0.9-0.8C212.1,46.9,211.7,46.8,211.3,46.8z"/>
</g>
<g id="XMLID_119_">
	<path id="XMLID_126_" class="st0" d="M40.5,34.5c-9.1,0-16.5,7.3-16.5,16.3c0,4.4,1.8,8.4,4.7,11.4l23-23.2
		C48.8,36.2,44.8,34.5,40.5,34.5z"/>
	<path id="XMLID_125_" class="st2" d="M51.7,38.9l-23,23.2c3,3,7.1,4.9,11.7,4.9c9.1,0,16.5-7.3,16.5-16.3
		C56.9,46.1,54.9,41.9,51.7,38.9z"/>
	<g id="XMLID_14_">
		<polygon id="XMLID_124_" class="st3" points="36.4,46.9 46.5,44.1 43.8,54.2 		"/>
		<polygon id="XMLID_123_" class="st4" points="40.1,50.5 33.8,57 36.4,46.9 		"/>
		<polygon id="XMLID_16_" class="st5" points="46.5,44.1 40.1,50.5 43.8,54.2 		"/>
		<polygon id="XMLID_15_" class="st0" points="40.1,50.5 33.8,57 43.8,54.2 		"/>
	</g>
</g>
</svg>
